<?xml version="1.0" encoding="utf-8"?>
<!-- Generator: Adobe Illustrator 16.0.0, SVG Export Plug-In . SVG Version: 6.00 Build 0)  -->
<svg version="1.2" baseProfile="tiny" id="Layer_1" xmlns="http://www.w3.org/2000/svg" xmlns:xlink="http://www.w3.org/1999/xlink"
	 x="0px" y="0px" width="675px" height="200px" viewBox="0 0 675 200" xml:space="preserve">
<g>
	<path fill="#0F0500" d="M74.589,120.954c0,4.444-0.945,8.544-2.823,12.313c-1.878,3.775-4.507,6.962-7.862,9.585
		c-3.361,2.622-7.355,4.675-11.987,6.152c-4.633,1.478-9.703,2.216-15.212,2.216c-6.592,0-12.501-0.9-17.733-2.71
		c-5.24-1.804-10.479-4.782-15.713-8.94l8.658-14.089c4.168,3.485,7.925,6.046,11.279,7.655c3.355,1.614,6.786,2.415,10.285,2.415
		c4.294,0,7.75-1.102,10.373-3.33c2.622-2.216,3.931-5.207,3.931-8.964c0-1.615-0.237-3.136-0.707-4.544s-1.34-2.861-2.617-4.339
		c-1.271-1.478-3.011-3.092-5.233-4.832c-2.216-1.753-5.063-3.907-8.551-6.461c-2.686-1.883-5.296-3.831-7.844-5.84
		c-2.554-2.022-4.863-4.176-6.948-6.466c-2.078-2.279-3.749-4.833-5.032-7.651c-1.277-2.834-1.903-6.058-1.903-9.689
		c0-4.163,0.864-7.957,2.61-11.393c1.733-3.432,4.113-6.348,7.136-8.771c3.012-2.417,6.623-4.3,10.849-5.64
		c4.226-1.352,8.808-2.027,13.766-2.027c5.233,0,10.297,0.708,15.205,2.104c4.896,1.401,9.434,3.435,13.603,6.109l-7.862,12.645
		c-5.371-3.755-11.011-5.64-16.926-5.64c-3.625,0-6.617,0.953-8.965,2.83c-2.354,1.885-3.524,4.239-3.524,7.062
		c0,2.692,1.039,5.114,3.117,7.262c2.06,2.152,5.646,5.183,10.735,9.077c5.128,3.767,9.378,7.067,12.745,9.89
		c3.369,2.829,6.029,5.489,7.981,7.969c1.966,2.498,3.313,5.021,4.057,7.574C74.207,115.038,74.589,117.867,74.589,120.954"/>
	<path fill="#0F0500" d="M191.861,96.197c0,7.931-1.22,15.223-3.65,21.873c-2.422,6.653-5.796,12.468-10.109,17.434
		c-4.312,4.977-9.428,8.832-15.367,11.594c-5.928,2.748-12.332,4.124-19.205,4.124c-3.105,0-6.003-0.27-8.702-0.801
		c-2.697-0.545-5.251-1.452-7.687-2.723c-2.423-1.285-4.814-2.93-7.168-4.952c-2.359-2.016-4.819-4.508-7.38-7.463v63.871H86.695
		V48.027h25.897l0.137,14.71c4.715-5.909,9.822-10.241,15.344-13.001c5.521-2.748,11.912-4.125,19.181-4.125
		c6.591,0,12.606,1.24,18.06,3.725c5.445,2.486,10.153,5.948,14.128,10.385c3.969,4.432,7.037,9.741,9.189,15.926
		C190.778,81.824,191.861,88.678,191.861,96.197 M163.692,97.217c0-11.023-2.229-19.737-6.698-26.128
		c-4.457-6.385-10.548-9.585-18.261-9.585c-8.118,0-14.542,3.399-19.267,10.192c-4.74,6.798-7.105,15.975-7.105,27.543
		c0,11.299,2.335,20.175,6.992,26.623c4.676,6.466,11.067,9.689,19.18,9.689c4.87,0,8.883-1.239,12.069-3.729
		c3.18-2.491,5.754-5.654,7.712-9.483c1.966-3.826,3.349-8.001,4.162-12.508C163.284,105.323,163.692,101.123,163.692,97.217"/>
	<rect x="203.386" y="0.847" fill="#0F0500" width="26.573" height="147.89"/>
	<path fill="#0F0500" d="M316.896,148.773l-0.063-13.496c-5.113,5.652-10.364,9.721-15.742,12.213
		c-5.384,2.491-11.649,3.725-18.774,3.725c-7.943,0-14.635-1.578-20.094-4.727c-5.445-3.167-9.384-7.843-11.8-14.035
		c-0.676-1.471-1.183-3.022-1.515-4.639c-0.339-1.614-0.645-3.46-0.914-5.552c-0.262-2.09-0.438-4.477-0.501-7.167
		c-0.069-2.692-0.1-5.985-0.1-9.892V47.876h26.573v57.729c0,5.121,0.237,9.008,0.708,11.705c0.475,2.692,1.319,5.121,2.534,7.262
		c3.099,5.659,8.577,8.481,16.401,8.481c9.989,0,16.875-4.168,20.651-12.513c0.945-2.154,1.621-4.538,2.026-7.168
		c0.408-2.623,0.608-6.353,0.608-11.197v-54.3h26.58v100.897H316.896z"/>
	<path fill="#0F0500" d="M431.521,148.729V91.157c0-5.102-0.232-8.995-0.708-11.675c-0.469-2.679-1.321-5.101-2.528-7.248
		c-3.1-5.634-8.571-8.458-16.401-8.458c-4.995,0-9.283,1.039-12.857,3.124c-3.581,2.073-6.248,5.133-7.994,9.158
		c-0.958,2.285-1.596,4.732-1.928,7.35c-0.345,2.609-0.508,6.271-0.508,10.968v54.354h-26.805V48.059h26.805l0.051,13.496
		c5.121-5.641,10.36-9.727,15.75-12.207c5.377-2.491,11.636-3.738,18.772-3.738c7.945,0,14.636,1.641,20.089,4.933
		c5.459,3.293,9.39,7.95,11.812,13.999c0.538,1.477,1.014,2.985,1.415,4.532c0.413,1.552,0.739,3.317,1.009,5.332
		c0.273,2.016,0.431,4.402,0.506,7.155c0.063,2.755,0.1,6.073,0.1,9.965v57.204H431.521z"/>
	<polygon fill="#0F0500" points="543.364,150.771 503.276,95.165 503.276,148.755 476.467,148.755 476.467,0.878 503.276,0.878 
		503.276,87.708 506.095,87.708 541.75,46.405 561.895,55.075 527.646,91.739 568.147,142.105 	"/>
	<polygon fill="#76B33A" points="591.159,146 591.159,128.297 653.608,97.512 591.159,67.12 591.159,49.01 671.742,89.461 
		671.742,105.956 	"/>
	<path fill="#0F0500" d="M599.559,31.632c1.348,0,2.28-0.62,2.28-1.709v-0.049c0-1.009-0.826-1.653-2.198-1.653h-2.816v3.412
		H599.559z M595.403,26.931h4.288c1.215,0,2.222,0.382,2.848,1.008c0.457,0.438,0.764,1.083,0.764,1.858v0.051
		c0,1.552-1.025,2.479-2.473,2.817l2.968,3.85h-1.753l-2.767-3.62h-2.454v3.62h-1.421V26.931z M607.572,31.996v-0.051
		c0-4.683-3.644-8.5-8.47-8.5c-4.864,0-8.532,3.869-8.532,8.551v0.049c0,4.683,3.638,8.502,8.47,8.502
		C603.903,40.547,607.572,36.672,607.572,31.996 M589.719,32.045v-0.049c0-5.09,4.133-9.359,9.384-9.359
		c5.239,0,9.327,4.22,9.327,9.309v0.051c0,5.088-4.138,9.351-9.39,9.351C593.801,41.347,589.719,37.135,589.719,32.045"/>
</g>
</svg>
